<?xml version="1.0" encoding="UTF-8"?><svg id="c" xmlns="http://www.w3.org/2000/svg" width="1366" height="768" xmlns:xlink="http://www.w3.org/1999/xlink" viewBox="0 0 1366 768"><defs><linearGradient id="d" x1="661.53" y1="1086.25" x2="658.06" y2="235.69" gradientUnits="userSpaceOnUse"><stop offset=".05" stop-color="#000"/><stop offset=".29" stop-color="#000"/><stop offset=".52" stop-color="#1b1464"/></linearGradient></defs><path id="e" d="M471,623c49.67-15.57,73.85,40.55,94,29,49.94-28.63,32.58,60.8,105.43,32.63,72.85-28.16,63.05-66.89,124.59-18.78,36.48,28.52,174.62,15.13,205.27,10.58,1.09-.16,2.17-.34,3.2-.73l116.13-44.05c.37-.14,.72-.29,1.07-.47,3.92-1.96,30.92-14.99,64.16-20.44,29.54-4.84,59.99,29.59,91.61,16.52,63.54-26.27,100.83,58.32,118.89,65.54,4.14,1.66,7,5.46,7.38,9.86l16.26,187.75c.58,6.65-4.59,12.44-11.34,12.7l-862.35,33.91c-.35,.01-.69,.04-1.04,.09l-390.27,45.83c-3.1,.39,2.96,2.07,.48,.19l-247.84-187.77c-5.1-3.87-6.16-11.05-2.37-16.19l53.72-72.88c1.21-1.64,2.85-2.95,4.72-3.79,43.35-19.39,12.9-30.14,58.39-17.88,46.46,12.52-2.46,27.47,56.31,6.96,58.77-20.52,20.9-14.97,70.39-23.65,28.2-4.95,27.1,44.32,77.43,14.34,50.33-29.98,31.46-15.69,50.33-29.98" fill="url(#d)"/><polygon id="f" points="378.28 636.87 424.69 629.51 425.42 668.14 390.46 699.66 372.78 749.86 343.96 768.18 354.56 731.9 370.63 697.54 369.27 666.01 378.28 636.87" fill="#2e3192"/><path id="g" d="M862.37,682.78s-6.78,37.04-8.38,38.08,24.88,65.34,24.88,65.34l-12.62,34.45-3.95-41.44-25.61-25.3-21.09-75.59,46.77,4.48Z" fill="#2e3192"/></svg>