<?xml version="1.0" encoding="UTF-8"?><svg id="a" xmlns="http://www.w3.org/2000/svg" width="1442.75" height="612.92" viewBox="0 0 1442.75 612.92"><g id="b"><circle cx=".32" cy=".32" r=".2" fill="#fff" stroke="#fdffd0" stroke-miterlimit="10" stroke-width=".25"/><polygon points="854.42 371.22 856.42 375.82 861.32 376.82 857.52 380.22 858.12 385.22 853.82 382.62 849.22 384.72 850.32 379.82 846.92 376.02 851.92 375.62 854.42 371.22" fill="#fff" stroke="#fdffd0" stroke-miterlimit="10" stroke-width=".51"/><polygon points="572.12 356.42 574.42 361.02 579.42 361.72 575.82 365.32 576.72 370.32 572.12 367.92 567.62 370.32 568.52 365.32 564.82 361.72 569.92 361.02 572.12 356.42" fill="#fffffe"/><polygon points="277.52 301.32 280.12 306.62 286.02 307.42 281.72 311.62 282.72 317.52 277.52 314.72 272.22 317.52 273.22 311.62 268.92 307.42 274.82 306.62 277.52 301.32" fill="#fffffe"/><polygon points="968.72 313.72 969.72 315.92 972.22 316.32 970.42 318.02 970.82 320.42 968.72 319.32 966.52 320.42 966.92 318.02 965.12 316.32 967.62 315.92 968.72 313.72" fill="#fffffe"/><polygon points="1255.62 493.62 1257.42 497.22 1261.52 497.82 1258.62 500.72 1259.22 504.72 1255.62 502.82 1252.02 504.72 1252.72 500.72 1249.82 497.82 1253.82 497.22 1255.62 493.62" fill="#fffffe"/><polygon points="832.92 506.62 835.02 510.82 839.72 511.52 836.32 514.82 837.12 519.52 832.92 517.32 828.72 519.52 829.52 514.82 826.12 511.52 830.82 510.82 832.92 506.62" fill="#fffffe"/><polygon points="1172.32 310.72 1173.42 312.92 1175.82 313.22 1174.02 314.92 1174.52 317.32 1172.32 316.22 1170.22 317.32 1170.62 314.92 1168.82 313.22 1171.22 312.92 1172.32 310.72" fill="#fffffe"/><polygon points="1328.12 195.22 1330.12 199.22 1334.62 199.92 1331.42 203.12 1332.12 207.52 1328.12 205.42 1324.12 207.52 1324.92 203.12 1321.72 199.92 1326.12 199.22 1328.12 195.22" fill="#fffffe"/><polygon points="1021.32 207.12 1023.92 212.22 1029.52 213.02 1025.42 217.02 1026.42 222.62 1021.32 220.02 1016.32 222.62 1017.32 217.02 1013.22 213.02 1018.82 212.22 1021.32 207.12" fill="#fffffe"/><polygon points="626.12 471.42 627.62 474.42 630.92 474.92 628.52 477.22 629.12 480.52 626.12 479.02 623.22 480.52 623.72 477.22 621.42 474.92 624.72 474.42 626.12 471.42" fill="#fffffe"/><polygon points="334.52 489.42 337.22 494.82 343.12 495.72 338.82 499.82 339.82 505.72 334.52 503.02 329.22 505.72 330.32 499.82 326.02 495.72 331.92 494.82 334.52 489.42" fill="#fffffe"/><polygon points="1141.52 604.52 1142.82 607.22 1145.92 607.72 1143.72 609.82 1144.22 612.92 1141.52 611.42 1138.72 612.92 1139.22 609.82 1137.02 607.72 1140.12 607.22 1141.52 604.52" fill="#fffffe"/><polygon points="646.22 112.22 648.62 117.02 654.02 117.82 650.12 121.62 651.02 127.02 646.22 124.52 641.42 127.02 642.32 121.62 638.42 117.82 643.82 117.02 646.22 112.22" fill="#fffffe"/><polygon points="501.22 55.12 503.12 58.92 507.42 59.62 504.32 62.62 505.02 66.82 501.22 64.82 497.32 66.82 498.12 62.62 495.02 59.62 499.32 58.92 501.22 55.12" fill="#fffffe"/><polygon points="1366.72 332.32 1367.82 334.52 1370.22 334.82 1368.42 336.52 1368.82 338.92 1366.72 337.72 1364.62 338.92 1365.02 336.52 1363.32 334.82 1365.62 334.52 1366.72 332.32" fill="#fffffe"/><circle cx="130.92" cy="458.12" r=".2" fill="#fff" stroke="#fdffd0" stroke-miterlimit="10" stroke-width=".22"/><circle cx="286.72" cy="438.62" r=".3" fill="#fff" stroke="#fdffd0" stroke-miterlimit="10" stroke-width=".3"/><circle cx="374.72" cy="369.52" r=".3" fill="#fff" stroke="#fdffd0" stroke-miterlimit="10" stroke-width=".28"/><circle cx="422.52" cy="464.52" r=".3" fill="#fff" stroke="#fdffd0" stroke-miterlimit="10" stroke-width=".28"/><circle cx="479.62" cy="494.92" r=".3" fill="#fff" stroke="#fdffd0" stroke-miterlimit="10" stroke-width=".28"/><circle cx="627.72" cy="473.12" r=".2" fill="#fff" stroke="#fdffd0" stroke-miterlimit="10" stroke-width=".23"/><circle cx="678.62" cy="434.82" r=".2" fill="#fff" stroke="#fdffd0" stroke-miterlimit="10" stroke-width=".23"/><circle cx="681.72" cy="410.32" r=".3" fill="#fff" stroke="#fdffd0" stroke-miterlimit="10" stroke-width=".25"/><circle cx="678.62" cy="354.12" r=".3" fill="#fff" stroke="#fdffd0" stroke-miterlimit="10" stroke-width=".3"/><circle cx="678.62" cy="340.12" r=".3" fill="#fff" stroke="#fdffd0" stroke-miterlimit="10" stroke-width=".28"/><circle cx="501.22" cy="257.92" r=".3" fill="#fff" stroke="#fdffd0" stroke-miterlimit="10" stroke-width=".3"/><circle cx="396.32" cy="209.52" r=".3" fill="#fff" stroke="#fdffd0" stroke-miterlimit="10" stroke-width=".31"/><circle cx="400.92" cy="299.62" r=".2" fill="#fff" stroke="#fdffd0" stroke-miterlimit="10" stroke-width=".22"/><circle cx="613.82" cy="272.92" r=".3" fill="#fff" stroke="#fdffd0" stroke-miterlimit="10" stroke-width=".27"/><circle cx="690.92" cy="221.12" r=".3" fill="#fff" stroke="#fdffd0" stroke-miterlimit="10" stroke-width=".27"/><circle cx="740.32" cy="195.32" r=".3" fill="#fff" stroke="#fdffd0" stroke-miterlimit="10" stroke-width=".26"/><circle cx="791.22" cy="165.92" r=".3" fill="#fff" stroke="#fdffd0" stroke-miterlimit="10" stroke-width=".25"/><circle cx="883.82" cy="128.72" r=".2" fill="#fff" stroke="#fdffd0" stroke-miterlimit="10" stroke-width=".23"/><circle cx="979.52" cy="158.62" r=".2" fill="#fff" stroke="#fdffd0" stroke-miterlimit="10" stroke-width=".22"/><circle cx="1021.12" cy="199.72" r=".2" fill="#fff" stroke="#fdffd0" stroke-miterlimit="10" stroke-width=".23"/><circle cx="1030.42" cy="217.92" r=".2" fill="#fff" stroke="#fdffd0" stroke-miterlimit="10" stroke-width=".23"/><circle cx="1078.22" cy="257.62" r=".3" fill="#fff" stroke="#fdffd0" stroke-miterlimit="10" stroke-width=".27"/><circle cx="1141.52" cy="241.32" r=".3" fill="#fff" stroke="#fdffd0" stroke-miterlimit="10" stroke-width=".29"/><circle cx="1206.32" cy="196.22" r=".2" fill="#fff" stroke="#fdffd0" stroke-miterlimit="10" stroke-width=".21"/><circle cx="1238.72" cy="163.62" r=".3" fill="#fff" stroke="#fdffd0" stroke-miterlimit="10" stroke-width=".27"/><circle cx="1277.22" cy="135.82" r=".2" fill="#fff" stroke="#fdffd0" stroke-miterlimit="10" stroke-width=".24"/><circle cx="1382.12" cy="153.32" r=".2" fill="#fff" stroke="#fdffd0" stroke-miterlimit="10" stroke-width=".22"/><circle cx="1399.12" cy="175.12" r=".3" fill="#fff" stroke="#fdffd0" stroke-miterlimit="10" stroke-width=".29"/><circle cx="1409.92" cy="251.42" r=".3" fill="#fff" stroke="#fdffd0" stroke-miterlimit="10" stroke-width=".29"/><g><circle cx="1373.52" cy="259.02" r=".3" fill="#fff" stroke="#fdffd0" stroke-miterlimit="10" stroke-width=".3"/><circle cx="1384.62" cy="262.02" r=".3" fill="#fff" stroke="#fdffd0" stroke-miterlimit="10" stroke-width=".29"/></g><circle cx="1170.82" cy="468.42" r=".3" fill="#fff" stroke="#fdffd0" stroke-miterlimit="10" stroke-width=".29"/><circle cx="1055.12" cy="381.52" r=".3" fill="#fff" stroke="#fdffd0" stroke-miterlimit="10" stroke-width=".31"/><circle cx="982.52" cy="483.92" r=".2" fill="#fff" stroke="#fdffd0" stroke-miterlimit="10" stroke-width=".22"/><circle cx="865.32" cy="554.82" r=".3" fill="#fff" stroke="#fdffd0" stroke-miterlimit="10" stroke-width=".27"/><circle cx="1119.92" cy="568.22" r=".2" fill="#fff" stroke="#fdffd0" stroke-miterlimit="10" stroke-width=".23"/><circle cx="1170.82" cy="531.92" r=".3" fill="#fff" stroke="#fdffd0" stroke-miterlimit="10" stroke-width=".28"/><circle cx="1220.12" cy="469.22" r=".3" fill="#fff" stroke="#fdffd0" stroke-miterlimit="10" stroke-width=".28"/><circle cx="1224.82" cy="435.82" r=".2" fill="#fff" stroke="#fdffd0" stroke-miterlimit="10" stroke-width=".25"/><circle cx="1235.62" cy="415.52" r=".2" fill="#fff" stroke="#fdffd0" stroke-miterlimit="10" stroke-width=".23"/><circle cx="1345.12" cy="403.92" r=".3" fill="#fff" stroke="#fdffd0" stroke-miterlimit="10" stroke-width=".26"/><circle cx="1391.42" cy="434.02" r=".3" fill="#fff" stroke="#fdffd0" stroke-miterlimit="10" stroke-width=".3"/><circle cx="1428.42" cy="494.52" r=".3" fill="#fff" stroke="#fdffd0" stroke-miterlimit="10" stroke-width=".25"/><circle cx="1442.32" cy="371.92" r=".3" fill="#fff" stroke="#fdffd0" stroke-miterlimit="10" stroke-width=".26"/><circle cx="1078.22" cy="235.22" r=".3" fill="#fff" stroke="#fdffd0" stroke-miterlimit="10" stroke-width=".26"/><circle cx="1098.32" cy="172.52" r=".2" fill="#fff" stroke="#fdffd0" stroke-miterlimit="10" stroke-width=".22"/><circle cx="1146.12" cy="141.32" r=".3" fill="#fff" stroke="#fdffd0" stroke-miterlimit="10" stroke-width=".28"/><circle cx="1155.32" cy="119.82" r=".3" fill="#fff" stroke="#fdffd0" stroke-miterlimit="10" stroke-width=".29"/><circle cx="839.12" cy="171.92" r=".2" fill="#fff" stroke="#fdffd0" stroke-miterlimit="10" stroke-width=".24"/><circle cx="800.52" cy="223.82" r=".2" fill="#fff" stroke="#fdffd0" stroke-miterlimit="10" stroke-width=".21"/><circle cx="1138.42" cy="200.02" r=".2" fill="#fff" stroke="#fdffd0" stroke-miterlimit="10" stroke-width=".24"/><circle cx="1178.52" cy="166.52" r=".3" fill="#fff" stroke="#fdffd0" stroke-miterlimit="10" stroke-width=".29"/><circle cx="1234.82" cy="126.52" r=".3" fill="#fff" stroke="#fdffd0" stroke-miterlimit="10" stroke-width=".29"/><circle cx="1289.62" cy="97.62" r=".3" fill="#fff" stroke="#fdffd0" stroke-miterlimit="10" stroke-width=".28"/><circle cx="1061.22" cy="447.62" r=".3" fill="#fff" stroke="#fdffd0" stroke-miterlimit="10" stroke-width=".25"/><circle cx="1047.32" cy="469.82" r=".2" fill="#fff" stroke="#fdffd0" stroke-miterlimit="10" stroke-width=".24"/><circle cx="970.22" cy="479.82" r=".3" fill="#fff" stroke="#fdffd0" stroke-miterlimit="10" stroke-width=".29"/><circle cx="920.82" cy="497.72" r=".3" fill="#fff" stroke="#fdffd0" stroke-miterlimit="10" stroke-width=".3"/><circle cx="644.72" cy="479.32" r=".3" fill="#fff" stroke="#fdffd0" stroke-miterlimit="10" stroke-width=".27"/><circle cx="729.52" cy="433.82" r=".3" fill="#fff" stroke="#fdffd0" stroke-miterlimit="10" stroke-width=".29"/><circle cx="709.52" cy="508.02" r=".3" fill="#fff" stroke="#fdffd0" stroke-miterlimit="10" stroke-width=".3"/><circle cx="723.32" cy="536.42" r=".3" fill="#fff" stroke="#fdffd0" stroke-miterlimit="10" stroke-width=".25"/><circle cx="797.42" cy="576.22" r=".3" fill="#fff" stroke="#fdffd0" stroke-miterlimit="10" stroke-width=".27"/><circle cx="953.22" cy="511.02" r=".3" fill="#fff" stroke="#fdffd0" stroke-miterlimit="10" stroke-width=".26"/><circle cx="1048.92" cy="447.52" r=".2" fill="#fff" stroke="#fdffd0" stroke-miterlimit="10" stroke-width=".23"/><circle cx="1087.52" cy="394.02" r=".2" fill="#fff" stroke="#fdffd0" stroke-miterlimit="10" stroke-width=".25"/><circle cx="1135.32" cy="322.32" r=".3" fill="#fff" stroke="#fdffd0" stroke-miterlimit="10" stroke-width=".26"/><circle cx="1132.22" cy="268.62" r=".3" fill="#fff" stroke="#fdffd0" stroke-miterlimit="10" stroke-width=".29"/><circle cx="1110.62" cy="195.52" r=".3" fill="#fff" stroke="#fdffd0" stroke-miterlimit="10" stroke-width=".27"/><circle cx="1084.42" cy="105.62" r=".3" fill="#fff" stroke="#fdffd0" stroke-miterlimit="10" stroke-width=".31"/><circle cx="1087.52" cy="89.82" r=".2" fill="#fff" stroke="#fdffd0" stroke-miterlimit="10" stroke-width=".2"/><circle cx="1096.72" cy="99.62" r=".3" fill="#fff" stroke="#fdffd0" stroke-miterlimit="10" stroke-width=".29"/><circle cx="1306.52" cy="172.22" r=".2" fill="#fff" stroke="#fdffd0" stroke-miterlimit="10" stroke-width=".23"/><circle cx="1357.52" cy="201.22" r=".3" fill="#fff" stroke="#fdffd0" stroke-miterlimit="10" stroke-width=".29"/><g><circle cx="1339.62" cy="282.92" r=".2" fill="#fff" stroke="#fdffd0" stroke-miterlimit="10" stroke-width=".2"/><circle cx="1347.22" cy="282.02" r=".2" fill="#fff" stroke="#fdffd0" stroke-miterlimit="10" stroke-width=".22"/><circle cx="1354.42" cy="281.72" r=".3" fill="#fff" stroke="#fdffd0" stroke-miterlimit="10" stroke-width=".26"/><circle cx="1340.92" cy="275.82" r=".3" fill="#fff" stroke="#fdffd0" stroke-miterlimit="10" stroke-width=".27"/><circle cx="1339.52" cy="272.32" r=".3" fill="#fff" stroke="#fdffd0" stroke-miterlimit="10" stroke-width=".26"/></g><circle cx="1431.52" cy="322.72" r=".3" fill="#fff" stroke="#fdffd0" stroke-miterlimit="10" stroke-width=".3"/></g></svg>